<mxfile host="app.diagrams.net" agent="Mozilla/5.0 (Windows NT 10.0; Win64; x64) AppleWebKit/537.36 (KHTML, like Gecko) Chrome/140.0.0.0 Safari/537.36" version="28.2.3">
  <diagram name="Page-1" id="hQSn2QX5KtqNRoDf6mRt">
    <mxGraphModel dx="2131" dy="623" grid="1" gridSize="10" guides="1" tooltips="1" connect="1" arrows="1" fold="1" page="1" pageScale="1" pageWidth="850" pageHeight="1100" math="0" shadow="0">
      <root>
        <mxCell id="0" />
        <mxCell id="1" parent="0" />
        <mxCell id="q27Sszn4dqpoyugtiMQd-3" value="" style="edgeStyle=orthogonalEdgeStyle;rounded=0;orthogonalLoop=1;jettySize=auto;html=1;" edge="1" parent="1" source="q27Sszn4dqpoyugtiMQd-1" target="q27Sszn4dqpoyugtiMQd-2">
          <mxGeometry relative="1" as="geometry" />
        </mxCell>
        <mxCell id="q27Sszn4dqpoyugtiMQd-1" value="start" style="ellipse;whiteSpace=wrap;html=1;" vertex="1" parent="1">
          <mxGeometry x="230" y="290" width="120" height="80" as="geometry" />
        </mxCell>
        <mxCell id="q27Sszn4dqpoyugtiMQd-6" value="" style="edgeStyle=orthogonalEdgeStyle;rounded=0;orthogonalLoop=1;jettySize=auto;html=1;" edge="1" parent="1" source="q27Sszn4dqpoyugtiMQd-2" target="q27Sszn4dqpoyugtiMQd-5">
          <mxGeometry relative="1" as="geometry" />
        </mxCell>
        <mxCell id="q27Sszn4dqpoyugtiMQd-2" value="set score= 0 for each player" style="whiteSpace=wrap;html=1;" vertex="1" parent="1">
          <mxGeometry x="230" y="460" width="120" height="60" as="geometry" />
        </mxCell>
        <mxCell id="q27Sszn4dqpoyugtiMQd-8" value="" style="edgeStyle=orthogonalEdgeStyle;rounded=0;orthogonalLoop=1;jettySize=auto;html=1;" edge="1" parent="1" source="q27Sszn4dqpoyugtiMQd-5" target="q27Sszn4dqpoyugtiMQd-7">
          <mxGeometry relative="1" as="geometry" />
        </mxCell>
        <mxCell id="q27Sszn4dqpoyugtiMQd-5" value="display welcome message and categories" style="whiteSpace=wrap;html=1;" vertex="1" parent="1">
          <mxGeometry x="230" y="600" width="120" height="60" as="geometry" />
        </mxCell>
        <mxCell id="q27Sszn4dqpoyugtiMQd-10" value="" style="edgeStyle=orthogonalEdgeStyle;rounded=0;orthogonalLoop=1;jettySize=auto;html=1;" edge="1" parent="1" source="q27Sszn4dqpoyugtiMQd-7" target="q27Sszn4dqpoyugtiMQd-9">
          <mxGeometry relative="1" as="geometry" />
        </mxCell>
        <mxCell id="q27Sszn4dqpoyugtiMQd-38" style="edgeStyle=orthogonalEdgeStyle;rounded=0;orthogonalLoop=1;jettySize=auto;html=1;exitX=1;exitY=0.5;exitDx=0;exitDy=0;entryX=1;entryY=0.25;entryDx=0;entryDy=0;" edge="1" parent="1" source="q27Sszn4dqpoyugtiMQd-7" target="q27Sszn4dqpoyugtiMQd-7">
          <mxGeometry relative="1" as="geometry">
            <mxPoint x="530" y="790" as="targetPoint" />
          </mxGeometry>
        </mxCell>
        <mxCell id="q27Sszn4dqpoyugtiMQd-7" value="player selects clue" style="shape=parallelogram;perimeter=parallelogramPerimeter;whiteSpace=wrap;html=1;fixedSize=1;" vertex="1" parent="1">
          <mxGeometry x="230" y="740" width="150" height="70" as="geometry" />
        </mxCell>
        <mxCell id="q27Sszn4dqpoyugtiMQd-12" value="" style="edgeStyle=orthogonalEdgeStyle;rounded=0;orthogonalLoop=1;jettySize=auto;html=1;" edge="1" parent="1" source="q27Sszn4dqpoyugtiMQd-9">
          <mxGeometry relative="1" as="geometry">
            <mxPoint x="305" y="1035" as="targetPoint" />
          </mxGeometry>
        </mxCell>
        <mxCell id="q27Sszn4dqpoyugtiMQd-9" value="display clue" style="whiteSpace=wrap;html=1;" vertex="1" parent="1">
          <mxGeometry x="245" y="895" width="120" height="60" as="geometry" />
        </mxCell>
        <mxCell id="q27Sszn4dqpoyugtiMQd-15" value="" style="edgeStyle=orthogonalEdgeStyle;rounded=0;orthogonalLoop=1;jettySize=auto;html=1;" edge="1" parent="1" target="q27Sszn4dqpoyugtiMQd-14">
          <mxGeometry relative="1" as="geometry">
            <mxPoint x="310" y="1100" as="sourcePoint" />
          </mxGeometry>
        </mxCell>
        <mxCell id="q27Sszn4dqpoyugtiMQd-18" value="" style="edgeStyle=orthogonalEdgeStyle;rounded=0;orthogonalLoop=1;jettySize=auto;html=1;" edge="1" parent="1" source="q27Sszn4dqpoyugtiMQd-14" target="q27Sszn4dqpoyugtiMQd-17">
          <mxGeometry relative="1" as="geometry" />
        </mxCell>
        <mxCell id="q27Sszn4dqpoyugtiMQd-14" value="Identify first buzz" style="whiteSpace=wrap;html=1;" vertex="1" parent="1">
          <mxGeometry x="250" y="1180" width="120" height="60" as="geometry" />
        </mxCell>
        <mxCell id="q27Sszn4dqpoyugtiMQd-16" value="Players Buzz In or pick someone" style="shape=parallelogram;perimeter=parallelogramPerimeter;whiteSpace=wrap;html=1;fixedSize=1;" vertex="1" parent="1">
          <mxGeometry x="250" y="1040" width="120" height="60" as="geometry" />
        </mxCell>
        <mxCell id="q27Sszn4dqpoyugtiMQd-20" value="" style="edgeStyle=orthogonalEdgeStyle;rounded=0;orthogonalLoop=1;jettySize=auto;html=1;" edge="1" parent="1" source="q27Sszn4dqpoyugtiMQd-17" target="q27Sszn4dqpoyugtiMQd-19">
          <mxGeometry relative="1" as="geometry" />
        </mxCell>
        <mxCell id="q27Sszn4dqpoyugtiMQd-17" value="player answers" style="shape=parallelogram;perimeter=parallelogramPerimeter;whiteSpace=wrap;html=1;fixedSize=1;" vertex="1" parent="1">
          <mxGeometry x="250" y="1320" width="120" height="60" as="geometry" />
        </mxCell>
        <mxCell id="q27Sszn4dqpoyugtiMQd-22" value="yes" style="edgeStyle=orthogonalEdgeStyle;rounded=0;orthogonalLoop=1;jettySize=auto;html=1;" edge="1" parent="1" source="q27Sszn4dqpoyugtiMQd-19" target="q27Sszn4dqpoyugtiMQd-21">
          <mxGeometry relative="1" as="geometry" />
        </mxCell>
        <mxCell id="q27Sszn4dqpoyugtiMQd-24" value="no" style="edgeStyle=orthogonalEdgeStyle;rounded=0;orthogonalLoop=1;jettySize=auto;html=1;" edge="1" parent="1" source="q27Sszn4dqpoyugtiMQd-19" target="q27Sszn4dqpoyugtiMQd-23">
          <mxGeometry relative="1" as="geometry" />
        </mxCell>
        <mxCell id="q27Sszn4dqpoyugtiMQd-19" value="Is answer correct &amp;amp; properly phrased" style="rhombus;whiteSpace=wrap;html=1;" vertex="1" parent="1">
          <mxGeometry x="250" y="1450" width="160" height="80" as="geometry" />
        </mxCell>
        <mxCell id="q27Sszn4dqpoyugtiMQd-28" value="" style="edgeStyle=orthogonalEdgeStyle;rounded=0;orthogonalLoop=1;jettySize=auto;html=1;" edge="1" parent="1" source="q27Sszn4dqpoyugtiMQd-21" target="q27Sszn4dqpoyugtiMQd-27">
          <mxGeometry relative="1" as="geometry" />
        </mxCell>
        <mxCell id="q27Sszn4dqpoyugtiMQd-21" value="add points" style="whiteSpace=wrap;html=1;" vertex="1" parent="1">
          <mxGeometry x="530" y="1460" width="120" height="60" as="geometry" />
        </mxCell>
        <mxCell id="q27Sszn4dqpoyugtiMQd-26" value="" style="edgeStyle=orthogonalEdgeStyle;rounded=0;orthogonalLoop=1;jettySize=auto;html=1;" edge="1" parent="1" source="q27Sszn4dqpoyugtiMQd-23" target="q27Sszn4dqpoyugtiMQd-25">
          <mxGeometry relative="1" as="geometry" />
        </mxCell>
        <mxCell id="q27Sszn4dqpoyugtiMQd-23" value="subtract points" style="whiteSpace=wrap;html=1;" vertex="1" parent="1">
          <mxGeometry x="30" y="1460" width="120" height="60" as="geometry" />
        </mxCell>
        <mxCell id="q27Sszn4dqpoyugtiMQd-31" style="edgeStyle=orthogonalEdgeStyle;rounded=0;orthogonalLoop=1;jettySize=auto;html=1;" edge="1" parent="1" source="q27Sszn4dqpoyugtiMQd-25">
          <mxGeometry relative="1" as="geometry">
            <mxPoint x="340" y="1770" as="targetPoint" />
          </mxGeometry>
        </mxCell>
        <mxCell id="q27Sszn4dqpoyugtiMQd-25" value="incorrect" style="shape=parallelogram;perimeter=parallelogramPerimeter;whiteSpace=wrap;html=1;fixedSize=1;" vertex="1" parent="1">
          <mxGeometry x="30" y="1600" width="120" height="60" as="geometry" />
        </mxCell>
        <mxCell id="q27Sszn4dqpoyugtiMQd-30" style="edgeStyle=orthogonalEdgeStyle;rounded=0;orthogonalLoop=1;jettySize=auto;html=1;exitX=0.5;exitY=1;exitDx=0;exitDy=0;entryX=0.647;entryY=0.5;entryDx=0;entryDy=0;entryPerimeter=0;" edge="1" parent="1" source="q27Sszn4dqpoyugtiMQd-27" target="q27Sszn4dqpoyugtiMQd-29">
          <mxGeometry relative="1" as="geometry">
            <mxPoint x="410" y="1763.2000732421875" as="targetPoint" />
          </mxGeometry>
        </mxCell>
        <mxCell id="q27Sszn4dqpoyugtiMQd-27" value="correct" style="shape=parallelogram;perimeter=parallelogramPerimeter;whiteSpace=wrap;html=1;fixedSize=1;" vertex="1" parent="1">
          <mxGeometry x="530" y="1600" width="120" height="60" as="geometry" />
        </mxCell>
        <mxCell id="q27Sszn4dqpoyugtiMQd-33" value="" style="edgeStyle=orthogonalEdgeStyle;rounded=0;orthogonalLoop=1;jettySize=auto;html=1;" edge="1" parent="1" source="q27Sszn4dqpoyugtiMQd-29" target="q27Sszn4dqpoyugtiMQd-32">
          <mxGeometry relative="1" as="geometry" />
        </mxCell>
        <mxCell id="q27Sszn4dqpoyugtiMQd-29" value="display updated score" style="shape=parallelogram;perimeter=parallelogramPerimeter;whiteSpace=wrap;html=1;fixedSize=1;" vertex="1" parent="1">
          <mxGeometry x="230" y="1770" width="170" height="60" as="geometry" />
        </mxCell>
        <mxCell id="q27Sszn4dqpoyugtiMQd-35" value="yes" style="edgeStyle=orthogonalEdgeStyle;rounded=0;orthogonalLoop=1;jettySize=auto;html=1;" edge="1" parent="1" source="q27Sszn4dqpoyugtiMQd-32" target="q27Sszn4dqpoyugtiMQd-7">
          <mxGeometry relative="1" as="geometry">
            <mxPoint x="520" y="790" as="targetPoint" />
            <Array as="points">
              <mxPoint x="521" y="1940" />
              <mxPoint x="521" y="775" />
            </Array>
          </mxGeometry>
        </mxCell>
        <mxCell id="q27Sszn4dqpoyugtiMQd-37" value="no" style="edgeStyle=orthogonalEdgeStyle;rounded=0;orthogonalLoop=1;jettySize=auto;html=1;" edge="1" parent="1" source="q27Sszn4dqpoyugtiMQd-32" target="q27Sszn4dqpoyugtiMQd-36">
          <mxGeometry relative="1" as="geometry" />
        </mxCell>
        <mxCell id="q27Sszn4dqpoyugtiMQd-32" value="are clues remaining" style="rhombus;whiteSpace=wrap;html=1;" vertex="1" parent="1">
          <mxGeometry x="275" y="1900" width="80" height="80" as="geometry" />
        </mxCell>
        <mxCell id="q27Sszn4dqpoyugtiMQd-40" value="" style="edgeStyle=orthogonalEdgeStyle;rounded=0;orthogonalLoop=1;jettySize=auto;html=1;" edge="1" parent="1" source="q27Sszn4dqpoyugtiMQd-36" target="q27Sszn4dqpoyugtiMQd-39">
          <mxGeometry relative="1" as="geometry" />
        </mxCell>
        <mxCell id="q27Sszn4dqpoyugtiMQd-36" value="check for tie" style="whiteSpace=wrap;html=1;" vertex="1" parent="1">
          <mxGeometry x="95" y="1910" width="120" height="60" as="geometry" />
        </mxCell>
        <mxCell id="q27Sszn4dqpoyugtiMQd-42" value="yes" style="edgeStyle=orthogonalEdgeStyle;rounded=0;orthogonalLoop=1;jettySize=auto;html=1;" edge="1" parent="1" source="q27Sszn4dqpoyugtiMQd-39" target="q27Sszn4dqpoyugtiMQd-41">
          <mxGeometry relative="1" as="geometry" />
        </mxCell>
        <mxCell id="q27Sszn4dqpoyugtiMQd-44" value="no" style="edgeStyle=orthogonalEdgeStyle;rounded=0;orthogonalLoop=1;jettySize=auto;html=1;" edge="1" parent="1" source="q27Sszn4dqpoyugtiMQd-39" target="q27Sszn4dqpoyugtiMQd-43">
          <mxGeometry relative="1" as="geometry" />
        </mxCell>
        <mxCell id="q27Sszn4dqpoyugtiMQd-39" value="is there a tie" style="rhombus;whiteSpace=wrap;html=1;" vertex="1" parent="1">
          <mxGeometry x="115" y="2040" width="135" height="140" as="geometry" />
        </mxCell>
        <mxCell id="q27Sszn4dqpoyugtiMQd-41" value="sudden death question" style="whiteSpace=wrap;html=1;" vertex="1" parent="1">
          <mxGeometry x="337.5" y="2080" width="120" height="60" as="geometry" />
        </mxCell>
        <mxCell id="q27Sszn4dqpoyugtiMQd-46" value="" style="edgeStyle=orthogonalEdgeStyle;rounded=0;orthogonalLoop=1;jettySize=auto;html=1;" edge="1" parent="1" source="q27Sszn4dqpoyugtiMQd-43" target="q27Sszn4dqpoyugtiMQd-45">
          <mxGeometry relative="1" as="geometry" />
        </mxCell>
        <mxCell id="q27Sszn4dqpoyugtiMQd-43" value="proceed to final score" style="whiteSpace=wrap;html=1;" vertex="1" parent="1">
          <mxGeometry x="-92.5" y="2080" width="120" height="60" as="geometry" />
        </mxCell>
        <mxCell id="q27Sszn4dqpoyugtiMQd-48" value="" style="edgeStyle=orthogonalEdgeStyle;rounded=0;orthogonalLoop=1;jettySize=auto;html=1;" edge="1" parent="1" source="q27Sszn4dqpoyugtiMQd-45" target="q27Sszn4dqpoyugtiMQd-47">
          <mxGeometry relative="1" as="geometry" />
        </mxCell>
        <mxCell id="q27Sszn4dqpoyugtiMQd-45" value="display final score &amp;amp; winner" style="shape=parallelogram;perimeter=parallelogramPerimeter;whiteSpace=wrap;html=1;fixedSize=1;" vertex="1" parent="1">
          <mxGeometry x="-92.5" y="2220" width="192.5" height="60" as="geometry" />
        </mxCell>
        <mxCell id="q27Sszn4dqpoyugtiMQd-47" value="" style="ellipse;whiteSpace=wrap;html=1;" vertex="1" parent="1">
          <mxGeometry x="-56.25" y="2370" width="120" height="80" as="geometry" />
        </mxCell>
      </root>
    </mxGraphModel>
  </diagram>
</mxfile>
